<?xml version="1.0" encoding="utf-8" standalone="no"?>
<!DOCTYPE svg PUBLIC "-//W3C//DTD SVG 1.1//EN"
  "http://www.w3.org/Graphics/SVG/1.1/DTD/svg11.dtd">
<svg xmlns:xlink="http://www.w3.org/1999/xlink" width="720pt" height="334.8pt" viewBox="0 0 720 334.8" xmlns="http://www.w3.org/2000/svg" version="1.1">
 <metadata>
  <rdf:RDF xmlns:dc="http://purl.org/dc/elements/1.1/" xmlns:cc="http://creativecommons.org/ns#" xmlns:rdf="http://www.w3.org/1999/02/22-rdf-syntax-ns#">
   <cc:Work>
    <dc:type rdf:resource="http://purl.org/dc/dcmitype/StillImage"/>
    <dc:description>CPython list chứa tham chiếu; ndarray int64 chứa trực tiếp 10,12,11. Sơ đồ vị trí đối tượng giản lược.</dc:description>
    <dc:format>image/svg+xml</dc:format>
    <dc:creator>
     <cc:Agent>
      <dc:title>Matplotlib v3.11.1, https://matplotlib.org/</dc:title>
     </cc:Agent>
    </dc:creator>
   </cc:Work>
  </rdf:RDF>
 </metadata>
 <defs>
  <style type="text/css">*{stroke-linejoin: round; stroke-linecap: butt}</style>
 </defs>
 <g id="figure_1">
  <g id="patch_1">
   <path d="M 0 334.8
L 720 334.8
L 720 0
L 0 0
L 0 334.8
z
" style="fill: none"/>
  </g>
  <g id="axes_1">
   <g id="patch_2">
    <path d="M 162.432 95.076
L 282.384 95.076
L 282.384 55.5624
L 162.432 55.5624
z
" clip-path="url(#p8f61b62ffe)" style="fill: #e8890c; opacity: 0.14"/>
   </g>
   <g id="patch_3">
    <path d="M 162.432 95.076
L 282.384 95.076
L 282.384 55.5624
L 162.432 55.5624
L 162.432 95.076
z
" clip-path="url(#p8f61b62ffe)" style="fill: none; stroke: #e8890c; stroke-width: 1.4; stroke-linejoin: miter"/>
   </g>
   <g id="patch_4">
    <path d="M 149.3784 163.872
L 274.2696 163.872
Q 277.092 163.872 277.092 161.0496
L 277.092 108.1296
Q 277.092 105.3072 274.2696 105.3072
L 149.3784 105.3072
Q 146.556 105.3072 146.556 108.1296
L 146.556 161.0496
Q 146.556 163.872 149.3784 163.872
z
" clip-path="url(#p8f61b62ffe)" style="fill: #ffffff; stroke: #e8890c; stroke-width: 1.6; stroke-linejoin: miter"/>
   </g>
   <g id="patch_5">
    <path d="M 303.552 95.076
L 423.504 95.076
L 423.504 55.5624
L 303.552 55.5624
z
" clip-path="url(#p8f61b62ffe)" style="fill: #e8890c; opacity: 0.14"/>
   </g>
   <g id="patch_6">
    <path d="M 303.552 95.076
L 423.504 95.076
L 423.504 55.5624
L 303.552 55.5624
L 303.552 95.076
z
" clip-path="url(#p8f61b62ffe)" style="fill: none; stroke: #e8890c; stroke-width: 1.4; stroke-linejoin: miter"/>
   </g>
   <g id="patch_7">
    <path d="M 311.6664 199.152
L 436.5576 199.152
Q 439.38 199.152 439.38 196.3296
L 439.38 143.4096
Q 439.38 140.5872 436.5576 140.5872
L 311.6664 140.5872
Q 308.844 140.5872 308.844 143.4096
L 308.844 196.3296
Q 308.844 199.152 311.6664 199.152
z
" clip-path="url(#p8f61b62ffe)" style="fill: #ffffff; stroke: #e8890c; stroke-width: 1.6; stroke-linejoin: miter"/>
   </g>
   <g id="patch_8">
    <path d="M 444.672 95.076
L 564.624 95.076
L 564.624 55.5624
L 444.672 55.5624
z
" clip-path="url(#p8f61b62ffe)" style="fill: #e8890c; opacity: 0.14"/>
   </g>
   <g id="patch_9">
    <path d="M 444.672 95.076
L 564.624 95.076
L 564.624 55.5624
L 444.672 55.5624
L 444.672 95.076
z
" clip-path="url(#p8f61b62ffe)" style="fill: none; stroke: #e8890c; stroke-width: 1.4; stroke-linejoin: miter"/>
   </g>
   <g id="patch_10">
    <path d="M 516.2904 163.872
L 641.1816 163.872
Q 644.004 163.872 644.004 161.0496
L 644.004 108.1296
Q 644.004 105.3072 641.1816 105.3072
L 516.2904 105.3072
Q 513.468 105.3072 513.468 108.1296
L 513.468 161.0496
Q 513.468 163.872 516.2904 163.872
z
" clip-path="url(#p8f61b62ffe)" style="fill: #ffffff; stroke: #e8890c; stroke-width: 1.6; stroke-linejoin: miter"/>
   </g>
   <g id="patch_11">
    <path d="M 162.432 306.756
L 303.552 306.756
L 303.552 264.42
L 162.432 264.42
z
" clip-path="url(#p8f61b62ffe)" style="fill: #1e93ab; opacity: 0.14"/>
   </g>
   <g id="patch_12">
    <path d="M 162.432 306.756
L 303.552 306.756
L 303.552 264.42
L 162.432 264.42
L 162.432 306.756
z
" clip-path="url(#p8f61b62ffe)" style="fill: none; stroke: #1e93ab; stroke-width: 1.4; stroke-linejoin: miter"/>
   </g>
   <g id="patch_13">
    <path d="M 303.552 306.756
L 444.672 306.756
L 444.672 264.42
L 303.552 264.42
z
" clip-path="url(#p8f61b62ffe)" style="fill: #1e93ab; opacity: 0.14"/>
   </g>
   <g id="patch_14">
    <path d="M 303.552 306.756
L 444.672 306.756
L 444.672 264.42
L 303.552 264.42
L 303.552 306.756
z
" clip-path="url(#p8f61b62ffe)" style="fill: none; stroke: #1e93ab; stroke-width: 1.4; stroke-linejoin: miter"/>
   </g>
   <g id="patch_15">
    <path d="M 444.672 306.756
L 585.792 306.756
L 585.792 264.42
L 444.672 264.42
z
" clip-path="url(#p8f61b62ffe)" style="fill: #1e93ab; opacity: 0.14"/>
   </g>
   <g id="patch_16">
    <path d="M 444.672 306.756
L 585.792 306.756
L 585.792 264.42
L 444.672 264.42
L 444.672 306.756
z
" clip-path="url(#p8f61b62ffe)" style="fill: none; stroke: #1e93ab; stroke-width: 1.4; stroke-linejoin: miter"/>
   </g>
   <g id="text_1">
    <!-- xs = [10, 12, 11] -->
    <g style="fill: #e8890c" transform="translate(17.784 31.6328) scale(0.2 -0.2)">
     <defs>
      <path id="SourceSansPro-Semibold-5d" d="M 91 0
L 1088 1638
L 153 3144
L 947 3144
L 1300 2547
Q 1372 2419 1444 2281
Q 1516 2144 1588 2016
L 1613 2016
Q 1669 2144 1733 2281
Q 1797 2419 1856 2547
L 2156 3144
L 2919 3144
L 1991 1556
L 2988 0
L 2194 0
L 1813 622
Q 1734 763 1654 903
Q 1575 1044 1491 1178
L 1466 1178
Q 1394 1044 1326 906
Q 1259 769 1191 622
L 856 0
L 91 0
z
" transform="scale(0.015625)"/>
      <path id="SourceSansPro-Semibold-58" d="M 153 359
L 500 831
Q 713 666 919 573
Q 1125 481 1369 481
Q 1625 481 1747 586
Q 1869 691 1869 856
Q 1869 953 1811 1026
Q 1753 1100 1658 1158
Q 1563 1216 1441 1264
Q 1319 1313 1197 1363
Q 1044 1419 883 1497
Q 722 1575 598 1683
Q 475 1791 394 1936
Q 313 2081 313 2278
Q 313 2694 620 2956
Q 928 3219 1459 3219
Q 1784 3219 2046 3103
Q 2309 2988 2503 2841
L 2163 2394
Q 1997 2516 1826 2589
Q 1656 2663 1472 2663
Q 1234 2663 1123 2563
Q 1013 2463 1013 2316
Q 1013 2219 1066 2153
Q 1119 2088 1209 2036
Q 1300 1984 1419 1939
Q 1538 1894 1663 1850
Q 1822 1794 1983 1719
Q 2144 1644 2275 1536
Q 2406 1428 2486 1270
Q 2566 1113 2566 897
Q 2566 691 2486 516
Q 2406 341 2253 209
Q 2100 78 1869 0
Q 1638 -78 1344 -78
Q 1019 -78 701 47
Q 384 172 153 359
z
" transform="scale(0.015625)"/>
      <path id="SourceSansPro-Semibold-5" transform="scale(0.015625)"/>
      <path id="SourceSansPro-Semibold-22" d="M 219 1134
L 219 1672
L 3066 1672
L 3066 1134
L 219 1134
z
M 219 2559
L 219 3097
L 3066 3097
L 3066 2559
L 219 2559
z
" transform="scale(0.015625)"/>
      <path id="SourceSansPro-Semibold-40" d="M 575 -972
L 575 4531
L 1831 4531
L 1831 4128
L 1131 4128
L 1131 -569
L 1831 -569
L 1831 -972
L 575 -972
z
" transform="scale(0.015625)"/>
      <path id="SourceSansPro-Semibold-16" d="M 475 0
L 475 603
L 1381 603
L 1381 3278
L 634 3278
L 634 3738
Q 941 3794 1161 3875
Q 1381 3956 1575 4072
L 2125 4072
L 2125 603
L 2925 603
L 2925 0
L 475 0
z
" transform="scale(0.015625)"/>
      <path id="SourceSansPro-Semibold-15" d="M 256 2053
Q 256 3091 626 3619
Q 997 4147 1638 4147
Q 2278 4147 2650 3615
Q 3022 3084 3022 2053
Q 3022 1016 2650 469
Q 2278 -78 1638 -78
Q 997 -78 626 470
Q 256 1019 256 2053
z
M 959 2053
Q 959 1619 1011 1325
Q 1063 1031 1152 845
Q 1241 659 1366 579
Q 1491 500 1638 500
Q 1784 500 1909 579
Q 2034 659 2125 845
Q 2216 1031 2266 1325
Q 2316 1619 2316 2053
Q 2316 2481 2266 2773
Q 2216 3066 2125 3245
Q 2034 3425 1909 3498
Q 1784 3572 1638 3572
Q 1491 3572 1366 3498
Q 1241 3425 1152 3245
Q 1063 3066 1011 2775
Q 959 2484 959 2053
z
" transform="scale(0.015625)"/>
      <path id="SourceSansPro-Semibold-11" d="M 300 -763
Q 606 -641 776 -436
Q 947 -231 947 13
L 891 13
Q 706 13 561 131
Q 416 250 416 469
Q 416 675 559 798
Q 703 922 909 922
Q 1172 922 1315 723
Q 1459 525 1459 166
Q 1459 -309 1200 -653
Q 941 -997 459 -1166
L 300 -763
z
" transform="scale(0.015625)"/>
      <path id="SourceSansPro-Semibold-17" d="M 213 3519
Q 494 3819 791 3983
Q 1088 4147 1509 4147
Q 1803 4147 2040 4058
Q 2278 3969 2445 3805
Q 2613 3641 2705 3411
Q 2797 3181 2797 2900
Q 2797 2631 2678 2353
Q 2559 2075 2357 1789
Q 2156 1503 1887 1203
Q 1619 903 1319 581
Q 1478 594 1664 611
Q 1850 628 1997 628
L 2994 628
L 2994 0
L 244 0
L 244 428
Q 666 838 1008 1183
Q 1350 1528 1590 1823
Q 1831 2119 1959 2375
Q 2088 2631 2088 2859
Q 2088 3184 1914 3375
Q 1741 3566 1416 3566
Q 1178 3566 983 3431
Q 788 3297 622 3109
L 213 3519
z
" transform="scale(0.015625)"/>
      <path id="SourceSansPro-Semibold-42" d="M 244 -569
L 941 -569
L 941 4128
L 244 4128
L 244 4531
L 1497 4531
L 1497 -972
L 244 -972
L 244 -569
z
" transform="scale(0.015625)"/>
     </defs>
     <use xlink:href="#SourceSansPro-Semibold-5d"/>
     <use xlink:href="#SourceSansPro-Semibold-58" transform="translate(48.09375 0)"/>
     <use xlink:href="#SourceSansPro-Semibold-5" transform="translate(91.15625 0)"/>
     <use xlink:href="#SourceSansPro-Semibold-22" transform="translate(111.609375 0)"/>
     <use xlink:href="#SourceSansPro-Semibold-5" transform="translate(162.875 0)"/>
     <use xlink:href="#SourceSansPro-Semibold-40" transform="translate(183.328125 0)"/>
     <use xlink:href="#SourceSansPro-Semibold-16" transform="translate(215.703125 0)"/>
     <use xlink:href="#SourceSansPro-Semibold-15" transform="translate(266.96875 0)"/>
     <use xlink:href="#SourceSansPro-Semibold-11" transform="translate(318.234375 0)"/>
     <use xlink:href="#SourceSansPro-Semibold-5" transform="translate(345.71875 0)"/>
     <use xlink:href="#SourceSansPro-Semibold-16" transform="translate(366.171875 0)"/>
     <use xlink:href="#SourceSansPro-Semibold-17" transform="translate(417.4375 0)"/>
     <use xlink:href="#SourceSansPro-Semibold-11" transform="translate(468.703125 0)"/>
     <use xlink:href="#SourceSansPro-Semibold-5" transform="translate(496.1875 0)"/>
     <use xlink:href="#SourceSansPro-Semibold-16" transform="translate(516.640625 0)"/>
     <use xlink:href="#SourceSansPro-Semibold-16" transform="translate(567.90625 0)"/>
     <use xlink:href="#SourceSansPro-Semibold-42" transform="translate(619.171875 0)"/>
    </g>
   </g>
   <g id="text_2">
    <!-- list lưu -->
    <g style="fill: #666666" transform="translate(24.84 71.28795) scale(0.16 -0.16)">
     <defs>
      <path id="SourceSansPro-Regular-51" d="M 525 628
L 525 4556
L 1050 4556
L 1050 588
Q 1050 459 1095 409
Q 1141 359 1197 359
Q 1222 359 1245 359
Q 1269 359 1313 372
L 1381 -25
Q 1331 -50 1261 -64
Q 1191 -78 1081 -78
Q 781 -78 653 101
Q 525 281 525 628
z
" transform="scale(0.015625)"/>
      <path id="SourceSansPro-Regular-4e" d="M 428 4091
Q 428 4244 534 4336
Q 641 4428 794 4428
Q 947 4428 1053 4336
Q 1159 4244 1159 4091
Q 1159 3944 1053 3847
Q 947 3750 794 3750
Q 641 3750 534 3847
Q 428 3944 428 4091
z
M 525 0
L 525 3109
L 1050 3109
L 1050 0
L 525 0
z
" transform="scale(0.015625)"/>
      <path id="SourceSansPro-Regular-58" d="M 178 353
L 441 703
Q 647 538 861 434
Q 1075 331 1356 331
Q 1663 331 1817 473
Q 1972 616 1972 819
Q 1972 941 1908 1030
Q 1844 1119 1744 1186
Q 1644 1253 1516 1304
Q 1388 1356 1259 1409
Q 1094 1466 928 1539
Q 763 1613 631 1719
Q 500 1825 415 1965
Q 331 2106 331 2303
Q 331 2488 406 2652
Q 481 2816 618 2934
Q 756 3053 954 3120
Q 1153 3188 1403 3188
Q 1697 3188 1942 3084
Q 2188 2981 2369 2834
L 2119 2503
Q 1959 2625 1786 2701
Q 1613 2778 1409 2778
Q 1116 2778 977 2643
Q 838 2509 838 2328
Q 838 2219 895 2139
Q 953 2059 1050 2000
Q 1147 1941 1270 1892
Q 1394 1844 1528 1791
Q 1694 1728 1864 1658
Q 2034 1588 2168 1481
Q 2303 1375 2390 1222
Q 2478 1069 2478 850
Q 2478 659 2403 492
Q 2328 325 2184 198
Q 2041 72 1827 -3
Q 1613 -78 1338 -78
Q 1006 -78 704 44
Q 403 166 178 353
z
" transform="scale(0.015625)"/>
      <path id="SourceSansPro-Regular-59" d="M 153 2681
L 153 3078
L 641 3109
L 703 3981
L 1147 3981
L 1147 3109
L 1984 3109
L 1984 2681
L 1147 2681
L 1147 953
Q 1147 666 1251 509
Q 1356 353 1625 353
Q 1709 353 1804 378
Q 1900 403 1978 434
L 2081 38
Q 1953 -6 1801 -42
Q 1650 -78 1503 -78
Q 1253 -78 1084 0
Q 916 78 809 212
Q 703 347 659 537
Q 616 728 616 959
L 616 2681
L 153 2681
z
" transform="scale(0.015625)"/>
      <path id="SourceSansPro-Regular-5" transform="scale(0.015625)"/>
      <path id="SourceSansPro-Regular-143" d="M 481 1141
L 481 3109
L 1013 3109
L 1013 1209
Q 1013 769 1150 573
Q 1288 378 1594 378
Q 1838 378 2023 503
Q 2209 628 2431 903
L 2431 3109
L 2566 3109
Q 2791 3134 2947 3225
Q 3103 3316 3103 3531
Q 3103 3603 3078 3670
Q 3053 3738 3016 3803
L 3391 3988
Q 3453 3897 3497 3795
Q 3541 3694 3541 3572
Q 3541 3425 3489 3315
Q 3438 3206 3358 3126
Q 3278 3047 3172 2995
Q 3066 2944 2956 2913
L 2956 0
L 2522 0
L 2478 488
L 2456 488
Q 2238 231 1998 76
Q 1759 -78 1434 -78
Q 934 -78 707 230
Q 481 538 481 1141
z
" transform="scale(0.015625)"/>
      <path id="SourceSansPro-Regular-5a" d="M 481 1141
L 481 3109
L 1013 3109
L 1013 1209
Q 1013 769 1150 573
Q 1288 378 1594 378
Q 1838 378 2023 503
Q 2209 628 2431 903
L 2431 3109
L 2956 3109
L 2956 0
L 2522 0
L 2478 488
L 2456 488
Q 2238 231 1998 76
Q 1759 -78 1434 -78
Q 934 -78 707 230
Q 481 538 481 1141
z
" transform="scale(0.015625)"/>
     </defs>
     <use xlink:href="#SourceSansPro-Regular-51"/>
     <use xlink:href="#SourceSansPro-Regular-4e" transform="translate(25.484375 0)"/>
     <use xlink:href="#SourceSansPro-Regular-58" transform="translate(50.046875 0)"/>
     <use xlink:href="#SourceSansPro-Regular-59" transform="translate(91.9375 0)"/>
     <use xlink:href="#SourceSansPro-Regular-5" transform="translate(125.734375 0)"/>
     <use xlink:href="#SourceSansPro-Regular-51" transform="translate(145.90625 0)"/>
     <use xlink:href="#SourceSansPro-Regular-143" transform="translate(171.390625 0)"/>
     <use xlink:href="#SourceSansPro-Regular-5a" transform="translate(225.78125 0)"/>
    </g>
    <!-- tham chiếu -->
    <g style="fill: #666666" transform="translate(24.84 87.35045) scale(0.16 -0.16)">
     <defs>
      <path id="SourceSansPro-Regular-4d" d="M 525 0
L 525 4556
L 1050 4556
L 1050 3316
L 1031 2675
Q 1256 2888 1498 3038
Q 1741 3188 2069 3188
Q 2563 3188 2789 2880
Q 3016 2572 3016 1972
L 3016 0
L 2491 0
L 2491 1900
Q 2491 2341 2350 2536
Q 2209 2731 1900 2731
Q 1656 2731 1472 2611
Q 1288 2491 1050 2253
L 1050 0
L 525 0
z
" transform="scale(0.015625)"/>
      <path id="SourceSansPro-Regular-46" d="M 372 806
Q 372 1319 830 1591
Q 1288 1863 2284 1972
Q 2284 2119 2256 2259
Q 2228 2400 2154 2509
Q 2081 2619 1959 2686
Q 1838 2753 1644 2753
Q 1369 2753 1136 2650
Q 903 2547 716 2419
L 506 2784
Q 725 2925 1037 3056
Q 1350 3188 1728 3188
Q 2297 3188 2553 2839
Q 2809 2491 2809 1906
L 2809 0
L 2375 0
L 2328 372
L 2316 372
Q 2091 188 1833 55
Q 1575 -78 1288 -78
Q 891 -78 631 153
Q 372 384 372 806
z
M 891 844
Q 891 575 1047 461
Q 1203 347 1434 347
Q 1659 347 1859 451
Q 2059 556 2284 763
L 2284 1625
Q 1894 1575 1625 1504
Q 1356 1434 1193 1337
Q 1031 1241 961 1116
Q 891 991 891 844
z
" transform="scale(0.015625)"/>
      <path id="SourceSansPro-Regular-52" d="M 525 0
L 525 3109
L 959 3109
L 1006 2663
L 1025 2663
Q 1231 2888 1470 3038
Q 1709 3188 1991 3188
Q 2350 3188 2551 3031
Q 2753 2875 2847 2591
Q 3091 2859 3337 3023
Q 3584 3188 3872 3188
Q 4353 3188 4586 2880
Q 4819 2572 4819 1972
L 4819 0
L 4294 0
L 4294 1900
Q 4294 2341 4153 2536
Q 4013 2731 3719 2731
Q 3366 2731 2938 2253
L 2938 0
L 2413 0
L 2413 1900
Q 2413 2341 2272 2536
Q 2131 2731 1831 2731
Q 1478 2731 1050 2253
L 1050 0
L 525 0
z
" transform="scale(0.015625)"/>
      <path id="SourceSansPro-Regular-48" d="M 294 1550
Q 294 1941 416 2244
Q 538 2547 742 2758
Q 947 2969 1219 3078
Q 1491 3188 1791 3188
Q 2097 3188 2319 3075
Q 2541 2963 2700 2816
L 2438 2478
Q 2297 2600 2147 2676
Q 1997 2753 1813 2753
Q 1600 2753 1420 2665
Q 1241 2578 1112 2418
Q 984 2259 911 2039
Q 838 1819 838 1550
Q 838 1281 908 1062
Q 978 844 1103 687
Q 1228 531 1408 445
Q 1588 359 1797 359
Q 2022 359 2205 451
Q 2388 544 2528 672
L 2766 325
Q 2553 141 2293 31
Q 2034 -78 1753 -78
Q 1447 -78 1178 31
Q 909 141 714 348
Q 519 556 406 861
Q 294 1166 294 1550
z
" transform="scale(0.015625)"/>
      <path id="SourceSansPro-Regular-1fb" d="M 294 1550
Q 294 1934 412 2237
Q 531 2541 726 2752
Q 922 2963 1172 3075
Q 1422 3188 1691 3188
Q 1984 3188 2217 3084
Q 2450 2981 2608 2789
Q 2766 2597 2848 2328
Q 2931 2059 2931 1728
Q 2931 1556 2913 1441
L 813 1441
Q 844 934 1123 640
Q 1403 347 1850 347
Q 2075 347 2262 414
Q 2450 481 2625 588
L 2809 244
Q 2603 116 2354 19
Q 2106 -78 1784 -78
Q 1472 -78 1200 34
Q 928 147 726 355
Q 525 563 409 864
Q 294 1166 294 1550
z
M 806 1784
L 2472 1784
Q 2472 2266 2270 2519
Q 2069 2772 1703 2772
Q 1538 2772 1386 2705
Q 1234 2638 1112 2513
Q 991 2388 911 2205
Q 831 2022 806 1784
z
M 953 3669
L 1478 4428
L 1916 4428
L 2441 3669
L 2081 3669
L 1709 4134
L 1684 4134
L 1313 3669
L 953 3669
z
M 2266 4097
L 2734 4825
L 3181 4825
L 2594 4097
L 2266 4097
z
" transform="scale(0.015625)"/>
     </defs>
     <use xlink:href="#SourceSansPro-Regular-59"/>
     <use xlink:href="#SourceSansPro-Regular-4d" transform="translate(33.796875 0)"/>
     <use xlink:href="#SourceSansPro-Regular-46" transform="translate(88.1875 0)"/>
     <use xlink:href="#SourceSansPro-Regular-52" transform="translate(139.359375 0)"/>
     <use xlink:href="#SourceSansPro-Regular-5" transform="translate(222.21875 0)"/>
     <use xlink:href="#SourceSansPro-Regular-48" transform="translate(242.390625 0)"/>
     <use xlink:href="#SourceSansPro-Regular-4d" transform="translate(287.953125 0)"/>
     <use xlink:href="#SourceSansPro-Regular-4e" transform="translate(342.34375 0)"/>
     <use xlink:href="#SourceSansPro-Regular-1fb" transform="translate(366.90625 0)"/>
     <use xlink:href="#SourceSansPro-Regular-5a" transform="translate(416.46875 0)"/>
    </g>
   </g>
   <g id="text_3">
    <!-- địa chỉ -->
    <g style="fill: #333333" transform="translate(200.33675 79.3192) scale(0.16 -0.16)">
     <defs>
      <path id="SourceSansPro-Regular-d5" d="M 300 1484
Q 300 1850 412 2140
Q 525 2431 711 2636
Q 897 2841 1139 2950
Q 1381 3059 1650 3059
Q 1919 3059 2117 2964
Q 2316 2869 2522 2700
L 2497 3231
L 2497 3653
L 1466 3653
L 1466 3963
L 2497 3963
L 2497 4556
L 3028 4556
L 3028 3963
L 3488 3963
L 3488 3688
L 3028 3653
L 3028 0
L 2578 0
L 2541 353
L 2522 353
Q 2344 175 2106 48
Q 1869 -78 1588 -78
Q 1000 -78 650 325
Q 300 728 300 1484
z
M 844 1491
Q 844 953 1069 659
Q 1294 366 1703 366
Q 1922 366 2112 470
Q 2303 575 2497 794
L 2497 2291
Q 2300 2469 2115 2544
Q 1931 2619 1741 2619
Q 1556 2619 1392 2537
Q 1228 2456 1106 2306
Q 984 2156 914 1948
Q 844 1741 844 1491
z
" transform="scale(0.015625)"/>
      <path id="SourceSansPro-Regular-207" d="M 428 4091
Q 428 4244 534 4336
Q 641 4428 794 4428
Q 947 4428 1053 4336
Q 1159 4244 1159 4091
Q 1159 3944 1053 3847
Q 947 3750 794 3750
Q 641 3750 534 3847
Q 428 3944 428 4091
z
M 447 -972
Q 447 -825 547 -729
Q 647 -634 794 -634
Q 941 -634 1041 -729
Q 1141 -825 1141 -972
Q 1141 -1125 1041 -1222
Q 941 -1319 794 -1319
Q 647 -1319 547 -1222
Q 447 -1125 447 -972
z
M 525 0
L 525 3109
L 1050 3109
L 1050 0
L 525 0
z
" transform="scale(0.015625)"/>
      <path id="SourceSansPro-Regular-205" d="M 378 4347
L 434 4653
Q 856 4641 1087 4509
Q 1319 4378 1319 4134
Q 1319 3994 1261 3894
Q 1203 3794 1104 3720
Q 1006 3647 878 3606
Q 750 3566 609 3541
L 550 3781
Q 703 3825 806 3890
Q 909 3956 909 4078
Q 909 4328 378 4347
z
M 525 0
L 525 3109
L 1050 3109
L 1050 0
L 525 0
z
" transform="scale(0.015625)"/>
     </defs>
     <use xlink:href="#SourceSansPro-Regular-d5"/>
     <use xlink:href="#SourceSansPro-Regular-207" transform="translate(55.46875 0)"/>
     <use xlink:href="#SourceSansPro-Regular-46" transform="translate(80.03125 0)"/>
     <use xlink:href="#SourceSansPro-Regular-5" transform="translate(131.203125 0)"/>
     <use xlink:href="#SourceSansPro-Regular-48" transform="translate(151.375 0)"/>
     <use xlink:href="#SourceSansPro-Regular-4d" transform="translate(196.9375 0)"/>
     <use xlink:href="#SourceSansPro-Regular-205" transform="translate(251.328125 0)"/>
    </g>
   </g>
   <g id="text_4">
    <!-- đối tượng int -->
    <g style="fill: #333333" transform="translate(169.06275 130.62085) scale(0.16 -0.16)">
     <defs>
      <path id="SourceSansPro-Regular-20d" d="M 294 1550
Q 294 1941 412 2244
Q 531 2547 729 2758
Q 928 2969 1187 3078
Q 1447 3188 1734 3188
Q 2022 3188 2281 3078
Q 2541 2969 2739 2758
Q 2938 2547 3056 2244
Q 3175 1941 3175 1550
Q 3175 1166 3056 861
Q 2938 556 2739 348
Q 2541 141 2281 31
Q 2022 -78 1734 -78
Q 1447 -78 1187 31
Q 928 141 729 348
Q 531 556 412 861
Q 294 1166 294 1550
z
M 838 1550
Q 838 1281 902 1062
Q 966 844 1084 687
Q 1203 531 1370 445
Q 1538 359 1734 359
Q 1931 359 2098 445
Q 2266 531 2384 687
Q 2503 844 2567 1062
Q 2631 1281 2631 1550
Q 2631 1819 2567 2039
Q 2503 2259 2384 2418
Q 2266 2578 2098 2665
Q 1931 2753 1734 2753
Q 1538 2753 1370 2665
Q 1203 2578 1084 2418
Q 966 2259 902 2039
Q 838 1819 838 1550
z
M 991 3669
L 1516 4428
L 1953 4428
L 2478 3669
L 2119 3669
L 1747 4134
L 1722 4134
L 1350 3669
L 991 3669
z
M 2303 4097
L 2772 4825
L 3219 4825
L 2631 4097
L 2303 4097
z
" transform="scale(0.015625)"/>
      <path id="SourceSansPro-Regular-21f" d="M 294 1550
Q 294 1941 412 2244
Q 531 2547 729 2758
Q 928 2969 1187 3078
Q 1447 3188 1734 3188
Q 2053 3188 2338 3053
Q 2563 3091 2686 3191
Q 2809 3291 2809 3469
Q 2809 3541 2784 3608
Q 2759 3675 2713 3738
L 3097 3922
Q 3159 3831 3201 3729
Q 3244 3628 3244 3506
Q 3244 3219 3066 3069
Q 2888 2919 2650 2847
Q 2888 2634 3031 2309
Q 3175 1984 3175 1550
Q 3175 1166 3056 861
Q 2938 556 2739 348
Q 2541 141 2281 31
Q 2022 -78 1734 -78
Q 1447 -78 1187 31
Q 928 141 729 348
Q 531 556 412 861
Q 294 1166 294 1550
z
M 838 1550
Q 838 1281 902 1062
Q 966 844 1084 687
Q 1203 531 1370 445
Q 1538 359 1734 359
Q 1931 359 2098 445
Q 2266 531 2384 687
Q 2503 844 2567 1062
Q 2631 1281 2631 1550
Q 2631 1819 2567 2039
Q 2503 2259 2384 2418
Q 2266 2578 2098 2665
Q 1931 2753 1734 2753
Q 1538 2753 1370 2665
Q 1203 2578 1084 2418
Q 966 2259 902 2039
Q 838 1819 838 1550
z
M 1394 -972
Q 1394 -825 1494 -729
Q 1594 -634 1741 -634
Q 1888 -634 1988 -729
Q 2088 -825 2088 -972
Q 2088 -1125 1988 -1222
Q 1888 -1319 1741 -1319
Q 1594 -1319 1494 -1222
Q 1394 -1125 1394 -972
z
" transform="scale(0.015625)"/>
      <path id="SourceSansPro-Regular-53" d="M 525 0
L 525 3109
L 959 3109
L 1006 2663
L 1025 2663
Q 1250 2888 1495 3038
Q 1741 3188 2069 3188
Q 2563 3188 2789 2880
Q 3016 2572 3016 1972
L 3016 0
L 2491 0
L 2491 1900
Q 2491 2341 2350 2536
Q 2209 2731 1900 2731
Q 1656 2731 1472 2611
Q 1288 2491 1050 2253
L 1050 0
L 525 0
z
" transform="scale(0.015625)"/>
      <path id="SourceSansPro-Regular-4c" d="M 288 -594
Q 288 -397 409 -217
Q 531 -38 744 109
L 744 134
Q 628 206 548 329
Q 469 453 469 641
Q 469 838 576 984
Q 684 1131 806 1216
L 806 1241
Q 653 1369 528 1583
Q 403 1797 403 2081
Q 403 2338 495 2542
Q 588 2747 748 2890
Q 909 3034 1123 3111
Q 1338 3188 1575 3188
Q 1703 3188 1814 3166
Q 1925 3144 2016 3109
L 3097 3109
L 3097 2706
L 2456 2706
Q 2566 2597 2639 2431
Q 2713 2266 2713 2069
Q 2713 1819 2623 1617
Q 2534 1416 2381 1278
Q 2228 1141 2020 1062
Q 1813 984 1575 984
Q 1459 984 1337 1014
Q 1216 1044 1106 1094
Q 1022 1022 965 936
Q 909 850 909 722
Q 909 575 1025 479
Q 1141 384 1459 384
L 2059 384
Q 2603 384 2876 207
Q 3150 31 3150 -359
Q 3150 -578 3040 -772
Q 2931 -966 2726 -1112
Q 2522 -1259 2231 -1346
Q 1941 -1434 1575 -1434
Q 1288 -1434 1050 -1379
Q 813 -1325 644 -1215
Q 475 -1106 381 -953
Q 288 -800 288 -594
z
M 750 -525
Q 750 -775 989 -922
Q 1228 -1069 1650 -1069
Q 1875 -1069 2058 -1014
Q 2241 -959 2369 -873
Q 2497 -788 2567 -672
Q 2638 -556 2638 -434
Q 2638 -216 2477 -133
Q 2316 -50 2009 -50
L 1472 -50
Q 1381 -50 1276 -40
Q 1172 -31 1069 0
Q 903 -122 826 -256
Q 750 -391 750 -525
z
M 916 2081
Q 916 1909 967 1770
Q 1019 1631 1111 1536
Q 1203 1441 1322 1389
Q 1441 1338 1575 1338
Q 1709 1338 1828 1389
Q 1947 1441 2039 1536
Q 2131 1631 2182 1768
Q 2234 1906 2234 2081
Q 2234 2428 2042 2615
Q 1850 2803 1575 2803
Q 1300 2803 1108 2614
Q 916 2425 916 2081
z
" transform="scale(0.015625)"/>
     </defs>
     <use xlink:href="#SourceSansPro-Regular-d5"/>
     <use xlink:href="#SourceSansPro-Regular-20d" transform="translate(55.46875 0)"/>
     <use xlink:href="#SourceSansPro-Regular-4e" transform="translate(109.671875 0)"/>
     <use xlink:href="#SourceSansPro-Regular-5" transform="translate(134.234375 0)"/>
     <use xlink:href="#SourceSansPro-Regular-59" transform="translate(154.40625 0)"/>
     <use xlink:href="#SourceSansPro-Regular-143" transform="translate(187.625 0)"/>
     <use xlink:href="#SourceSansPro-Regular-21f" transform="translate(242.015625 0)"/>
     <use xlink:href="#SourceSansPro-Regular-53" transform="translate(296.21875 0)"/>
     <use xlink:href="#SourceSansPro-Regular-4c" transform="translate(350.90625 0)"/>
     <use xlink:href="#SourceSansPro-Regular-5" transform="translate(401.296875 0)"/>
     <use xlink:href="#SourceSansPro-Regular-4e" transform="translate(421.46875 0)"/>
     <use xlink:href="#SourceSansPro-Regular-53" transform="translate(446.03125 0)"/>
     <use xlink:href="#SourceSansPro-Regular-59" transform="translate(500.71875 0)"/>
    </g>
    <!-- giá trị 10 -->
    <g style="fill: #333333" transform="translate(183.119 146.62085) scale(0.16 -0.16)">
     <defs>
      <path id="SourceSansPro-Regular-a5" d="M 372 806
Q 372 1319 830 1591
Q 1288 1863 2284 1972
Q 2284 2119 2256 2259
Q 2228 2400 2154 2509
Q 2081 2619 1959 2686
Q 1838 2753 1644 2753
Q 1369 2753 1136 2650
Q 903 2547 716 2419
L 506 2784
Q 725 2925 1037 3056
Q 1350 3188 1728 3188
Q 2297 3188 2553 2839
Q 2809 2491 2809 1906
L 2809 0
L 2375 0
L 2328 372
L 2316 372
Q 2091 188 1833 55
Q 1575 -78 1288 -78
Q 891 -78 631 153
Q 372 384 372 806
z
M 891 844
Q 891 575 1047 461
Q 1203 347 1434 347
Q 1659 347 1859 451
Q 2059 556 2284 763
L 2284 1625
Q 1894 1575 1625 1504
Q 1356 1434 1193 1337
Q 1031 1241 961 1116
Q 891 991 891 844
z
M 1306 3669
L 1881 4569
L 2431 4569
L 1709 3669
L 1306 3669
z
" transform="scale(0.015625)"/>
      <path id="SourceSansPro-Regular-57" d="M 525 0
L 525 3109
L 959 3109
L 1006 2547
L 1025 2547
Q 1184 2841 1411 3014
Q 1638 3188 1906 3188
Q 2091 3188 2241 3122
L 2138 2663
Q 2059 2688 1995 2700
Q 1931 2713 1838 2713
Q 1641 2713 1425 2553
Q 1209 2394 1050 1997
L 1050 0
L 525 0
z
" transform="scale(0.015625)"/>
      <path id="SourceSansPro-Regular-16" d="M 506 0
L 506 434
L 1441 434
L 1441 3444
L 697 3444
L 697 3781
Q 978 3831 1186 3906
Q 1394 3981 1563 4084
L 1966 4084
L 1966 434
L 2809 434
L 2809 0
L 506 0
z
" transform="scale(0.015625)"/>
      <path id="SourceSansPro-Regular-15" d="M 281 2053
Q 281 3084 626 3621
Q 972 4159 1594 4159
Q 2209 4159 2554 3621
Q 2900 3084 2900 2053
Q 2900 1022 2554 472
Q 2209 -78 1594 -78
Q 972 -78 626 473
Q 281 1025 281 2053
z
M 794 2053
Q 794 1156 1014 751
Q 1234 347 1594 347
Q 1772 347 1915 445
Q 2059 544 2165 751
Q 2272 959 2330 1282
Q 2388 1606 2388 2053
Q 2388 2500 2330 2822
Q 2272 3144 2165 3345
Q 2059 3547 1915 3642
Q 1772 3738 1594 3738
Q 1416 3738 1267 3642
Q 1119 3547 1014 3345
Q 909 3144 851 2823
Q 794 2503 794 2053
z
" transform="scale(0.015625)"/>
     </defs>
     <use xlink:href="#SourceSansPro-Regular-4c"/>
     <use xlink:href="#SourceSansPro-Regular-4e" transform="translate(50.390625 0)"/>
     <use xlink:href="#SourceSansPro-Regular-a5" transform="translate(74.953125 0)"/>
     <use xlink:href="#SourceSansPro-Regular-5" transform="translate(126.125 0)"/>
     <use xlink:href="#SourceSansPro-Regular-59" transform="translate(146.296875 0)"/>
     <use xlink:href="#SourceSansPro-Regular-57" transform="translate(180.09375 0)"/>
     <use xlink:href="#SourceSansPro-Regular-207" transform="translate(214.765625 0)"/>
     <use xlink:href="#SourceSansPro-Regular-5" transform="translate(239.328125 0)"/>
     <use xlink:href="#SourceSansPro-Regular-16" transform="translate(259.5 0)"/>
     <use xlink:href="#SourceSansPro-Regular-15" transform="translate(309.15625 0)"/>
    </g>
   </g>
   <g id="patch_17">
    <path d="M 220.420916 97.328029
Q 217.114168 101.075677 215.28685 103.146636
" style="fill: none; stroke: #e8890c; stroke-width: 2; stroke-linecap: round"/>
    <path d="M 222.749942 100.129642
L 215.28685 103.146636
L 217.35111 95.365966
" style="fill: none; stroke: #e8890c; stroke-width: 2; stroke-linecap: round"/>
   </g>
   <g id="text_5">
    <!-- địa chỉ -->
    <g style="fill: #333333" transform="translate(341.45675 79.3192) scale(0.16 -0.16)">
     <use xlink:href="#SourceSansPro-Regular-d5"/>
     <use xlink:href="#SourceSansPro-Regular-207" transform="translate(55.46875 0)"/>
     <use xlink:href="#SourceSansPro-Regular-46" transform="translate(80.03125 0)"/>
     <use xlink:href="#SourceSansPro-Regular-5" transform="translate(131.203125 0)"/>
     <use xlink:href="#SourceSansPro-Regular-48" transform="translate(151.375 0)"/>
     <use xlink:href="#SourceSansPro-Regular-4d" transform="translate(196.9375 0)"/>
     <use xlink:href="#SourceSansPro-Regular-205" transform="translate(251.328125 0)"/>
    </g>
   </g>
   <g id="text_6">
    <!-- đối tượng int -->
    <g style="fill: #333333" transform="translate(331.35075 165.90085) scale(0.16 -0.16)">
     <use xlink:href="#SourceSansPro-Regular-d5"/>
     <use xlink:href="#SourceSansPro-Regular-20d" transform="translate(55.46875 0)"/>
     <use xlink:href="#SourceSansPro-Regular-4e" transform="translate(109.671875 0)"/>
     <use xlink:href="#SourceSansPro-Regular-5" transform="translate(134.234375 0)"/>
     <use xlink:href="#SourceSansPro-Regular-59" transform="translate(154.40625 0)"/>
     <use xlink:href="#SourceSansPro-Regular-143" transform="translate(187.625 0)"/>
     <use xlink:href="#SourceSansPro-Regular-21f" transform="translate(242.015625 0)"/>
     <use xlink:href="#SourceSansPro-Regular-53" transform="translate(296.21875 0)"/>
     <use xlink:href="#SourceSansPro-Regular-4c" transform="translate(350.90625 0)"/>
     <use xlink:href="#SourceSansPro-Regular-5" transform="translate(401.296875 0)"/>
     <use xlink:href="#SourceSansPro-Regular-4e" transform="translate(421.46875 0)"/>
     <use xlink:href="#SourceSansPro-Regular-53" transform="translate(446.03125 0)"/>
     <use xlink:href="#SourceSansPro-Regular-59" transform="translate(500.71875 0)"/>
    </g>
    <!-- giá trị 12 -->
    <g style="fill: #333333" transform="translate(345.407 181.90085) scale(0.16 -0.16)">
     <defs>
      <path id="SourceSansPro-Regular-17" d="M 231 3541
Q 488 3822 775 3990
Q 1063 4159 1466 4159
Q 2034 4159 2361 3829
Q 2688 3500 2688 2956
Q 2688 2669 2563 2378
Q 2438 2088 2217 1777
Q 1997 1466 1692 1130
Q 1388 794 1025 416
Q 1191 428 1370 440
Q 1550 453 1709 453
L 2894 453
L 2894 0
L 256 0
L 256 313
Q 716 772 1075 1144
Q 1434 1516 1676 1833
Q 1919 2150 2047 2415
Q 2175 2681 2175 2931
Q 2175 3284 1983 3507
Q 1791 3731 1403 3731
Q 1147 3731 928 3587
Q 709 3444 531 3238
L 231 3541
z
" transform="scale(0.015625)"/>
     </defs>
     <use xlink:href="#SourceSansPro-Regular-4c"/>
     <use xlink:href="#SourceSansPro-Regular-4e" transform="translate(50.390625 0)"/>
     <use xlink:href="#SourceSansPro-Regular-a5" transform="translate(74.953125 0)"/>
     <use xlink:href="#SourceSansPro-Regular-5" transform="translate(126.125 0)"/>
     <use xlink:href="#SourceSansPro-Regular-59" transform="translate(146.296875 0)"/>
     <use xlink:href="#SourceSansPro-Regular-57" transform="translate(180.09375 0)"/>
     <use xlink:href="#SourceSansPro-Regular-207" transform="translate(214.765625 0)"/>
     <use xlink:href="#SourceSansPro-Regular-5" transform="translate(239.328125 0)"/>
     <use xlink:href="#SourceSansPro-Regular-16" transform="translate(259.5 0)"/>
     <use xlink:href="#SourceSansPro-Regular-17" transform="translate(309.15625 0)"/>
    </g>
   </g>
   <g id="patch_18">
    <path d="M 364.183686 98.004731
Q 368.820313 118.714998 372.968421 137.243213
" style="fill: none; stroke: #e8890c; stroke-width: 2; stroke-linecap: round"/>
    <path d="M 374.908455 129.430641
L 372.968421 137.243213
L 367.882385 131.003642
" style="fill: none; stroke: #e8890c; stroke-width: 2; stroke-linecap: round"/>
   </g>
   <g id="text_7">
    <!-- địa chỉ -->
    <g style="fill: #333333" transform="translate(482.57675 79.3192) scale(0.16 -0.16)">
     <use xlink:href="#SourceSansPro-Regular-d5"/>
     <use xlink:href="#SourceSansPro-Regular-207" transform="translate(55.46875 0)"/>
     <use xlink:href="#SourceSansPro-Regular-46" transform="translate(80.03125 0)"/>
     <use xlink:href="#SourceSansPro-Regular-5" transform="translate(131.203125 0)"/>
     <use xlink:href="#SourceSansPro-Regular-48" transform="translate(151.375 0)"/>
     <use xlink:href="#SourceSansPro-Regular-4d" transform="translate(196.9375 0)"/>
     <use xlink:href="#SourceSansPro-Regular-205" transform="translate(251.328125 0)"/>
    </g>
   </g>
   <g id="text_8">
    <!-- đối tượng int -->
    <g style="fill: #333333" transform="translate(535.97475 130.62085) scale(0.16 -0.16)">
     <use xlink:href="#SourceSansPro-Regular-d5"/>
     <use xlink:href="#SourceSansPro-Regular-20d" transform="translate(55.46875 0)"/>
     <use xlink:href="#SourceSansPro-Regular-4e" transform="translate(109.671875 0)"/>
     <use xlink:href="#SourceSansPro-Regular-5" transform="translate(134.234375 0)"/>
     <use xlink:href="#SourceSansPro-Regular-59" transform="translate(154.40625 0)"/>
     <use xlink:href="#SourceSansPro-Regular-143" transform="translate(187.625 0)"/>
     <use xlink:href="#SourceSansPro-Regular-21f" transform="translate(242.015625 0)"/>
     <use xlink:href="#SourceSansPro-Regular-53" transform="translate(296.21875 0)"/>
     <use xlink:href="#SourceSansPro-Regular-4c" transform="translate(350.90625 0)"/>
     <use xlink:href="#SourceSansPro-Regular-5" transform="translate(401.296875 0)"/>
     <use xlink:href="#SourceSansPro-Regular-4e" transform="translate(421.46875 0)"/>
     <use xlink:href="#SourceSansPro-Regular-53" transform="translate(446.03125 0)"/>
     <use xlink:href="#SourceSansPro-Regular-59" transform="translate(500.71875 0)"/>
    </g>
    <!-- giá trị 11 -->
    <g style="fill: #333333" transform="translate(550.031 146.62085) scale(0.16 -0.16)">
     <use xlink:href="#SourceSansPro-Regular-4c"/>
     <use xlink:href="#SourceSansPro-Regular-4e" transform="translate(50.390625 0)"/>
     <use xlink:href="#SourceSansPro-Regular-a5" transform="translate(74.953125 0)"/>
     <use xlink:href="#SourceSansPro-Regular-5" transform="translate(126.125 0)"/>
     <use xlink:href="#SourceSansPro-Regular-59" transform="translate(146.296875 0)"/>
     <use xlink:href="#SourceSansPro-Regular-57" transform="translate(180.09375 0)"/>
     <use xlink:href="#SourceSansPro-Regular-207" transform="translate(214.765625 0)"/>
     <use xlink:href="#SourceSansPro-Regular-5" transform="translate(239.328125 0)"/>
     <use xlink:href="#SourceSansPro-Regular-16" transform="translate(259.5 0)"/>
     <use xlink:href="#SourceSansPro-Regular-16" transform="translate(309.15625 0)"/>
    </g>
   </g>
   <g id="patch_19">
    <path d="M 507.609892 95.555544
Q 541.690429 101.073346 573.56364 106.23377
" style="fill: none; stroke: #e8890c; stroke-width: 2; stroke-linecap: round"/>
    <path d="M 567.031557 101.529316
L 573.56364 106.23377
L 565.880827 108.636765
" style="fill: none; stroke: #e8890c; stroke-width: 2; stroke-linecap: round"/>
   </g>
   <g id="text_9">
    <!-- np.array(xs, dtype=np.int64) -->
    <g style="fill: #1e93ab" transform="translate(17.784 248.9576) scale(0.2 -0.2)">
     <defs>
      <path id="SourceSansPro-Semibold-53" d="M 469 0
L 469 3144
L 1075 3144
L 1125 2719
L 1153 2719
Q 1366 2925 1611 3072
Q 1856 3219 2181 3219
Q 2688 3219 2919 2895
Q 3150 2572 3150 1972
L 3150 0
L 2413 0
L 2413 1875
Q 2413 2266 2297 2425
Q 2181 2584 1919 2584
Q 1713 2584 1558 2486
Q 1403 2388 1203 2194
L 1203 0
L 469 0
z
" transform="scale(0.015625)"/>
      <path id="SourceSansPro-Semibold-55" d="M 469 -1241
L 469 3144
L 1075 3144
L 1125 2809
L 1153 2809
Q 1350 2975 1594 3097
Q 1838 3219 2100 3219
Q 2394 3219 2620 3106
Q 2847 2994 3008 2783
Q 3169 2572 3251 2278
Q 3334 1984 3334 1619
Q 3334 1216 3221 898
Q 3109 581 2925 367
Q 2741 153 2497 37
Q 2253 -78 1991 -78
Q 1784 -78 1579 12
Q 1375 103 1184 269
L 1203 -256
L 1203 -1241
L 469 -1241
z
M 1203 794
Q 1375 647 1536 589
Q 1697 531 1838 531
Q 2150 531 2361 803
Q 2572 1075 2572 1613
Q 2572 2088 2412 2350
Q 2253 2613 1894 2613
Q 1563 2613 1203 2259
L 1203 794
z
" transform="scale(0.015625)"/>
      <path id="SourceSansPro-Semibold-13" d="M 403 422
Q 403 641 540 781
Q 678 922 884 922
Q 1091 922 1223 781
Q 1356 641 1356 422
Q 1356 203 1222 62
Q 1088 -78 884 -78
Q 678 -78 540 62
Q 403 203 403 422
z
" transform="scale(0.015625)"/>
      <path id="SourceSansPro-Semibold-46" d="M 331 844
Q 331 1350 773 1625
Q 1216 1900 2181 2009
Q 2181 2131 2150 2243
Q 2119 2356 2051 2442
Q 1984 2528 1878 2576
Q 1772 2625 1613 2625
Q 1375 2625 1154 2534
Q 934 2444 728 2316
L 459 2809
Q 722 2975 1045 3097
Q 1369 3219 1747 3219
Q 2341 3219 2630 2870
Q 2919 2522 2919 1863
L 2919 0
L 2316 0
L 2259 347
L 2241 347
Q 2028 169 1789 45
Q 1550 -78 1269 -78
Q 853 -78 592 175
Q 331 428 331 844
z
M 1050 903
Q 1050 691 1175 595
Q 1300 500 1497 500
Q 1688 500 1848 589
Q 2009 678 2181 844
L 2181 1550
Q 1863 1513 1645 1447
Q 1428 1381 1297 1301
Q 1166 1222 1108 1120
Q 1050 1019 1050 903
z
" transform="scale(0.015625)"/>
      <path id="SourceSansPro-Semibold-57" d="M 469 0
L 469 3144
L 1075 3144
L 1125 2584
L 1153 2584
Q 1319 2891 1555 3055
Q 1791 3219 2041 3219
Q 2266 3219 2400 3156
L 2272 2516
Q 2188 2541 2117 2553
Q 2047 2566 1947 2566
Q 1763 2566 1556 2422
Q 1350 2278 1203 1919
L 1203 0
L 469 0
z
" transform="scale(0.015625)"/>
      <path id="SourceSansPro-Semibold-5e" d="M 78 3144
L 825 3144
L 1369 1600
Q 1441 1394 1508 1167
Q 1575 941 1644 716
L 1672 716
Q 1728 934 1789 1161
Q 1850 1388 1906 1600
L 2381 3144
L 3091 3144
L 1953 -141
Q 1856 -409 1740 -620
Q 1625 -831 1475 -981
Q 1325 -1131 1129 -1212
Q 934 -1294 678 -1294
Q 550 -1294 454 -1276
Q 359 -1259 269 -1228
L 403 -653
Q 447 -666 508 -681
Q 569 -697 628 -697
Q 878 -697 1028 -547
Q 1178 -397 1253 -159
L 1313 38
L 78 3144
z
" transform="scale(0.015625)"/>
      <path id="SourceSansPro-Semibold-d" d="M 494 1778
Q 494 2628 714 3333
Q 934 4038 1338 4697
L 1797 4494
Q 1431 3872 1262 3181
Q 1094 2491 1094 1778
Q 1094 1069 1264 378
Q 1434 -313 1797 -934
L 1338 -1141
Q 934 -481 714 223
Q 494 928 494 1778
z
" transform="scale(0.015625)"/>
      <path id="SourceSansPro-Semibold-49" d="M 275 1569
Q 275 1953 387 2259
Q 500 2566 686 2777
Q 872 2988 1111 3103
Q 1350 3219 1606 3219
Q 1875 3219 2061 3126
Q 2247 3034 2431 2875
L 2406 3378
L 2406 4519
L 3144 4519
L 3144 0
L 2534 0
L 2484 341
L 2456 341
Q 2284 169 2054 45
Q 1825 -78 1569 -78
Q 975 -78 625 355
Q 275 788 275 1569
z
M 1038 1575
Q 1038 1063 1220 797
Q 1403 531 1747 531
Q 2100 531 2406 884
L 2406 2350
Q 2241 2497 2083 2555
Q 1925 2613 1766 2613
Q 1459 2613 1248 2344
Q 1038 2075 1038 1575
z
" transform="scale(0.015625)"/>
      <path id="SourceSansPro-Semibold-59" d="M 128 2559
L 128 3109
L 616 3144
L 703 4000
L 1319 4000
L 1319 3144
L 2119 3144
L 2119 2559
L 1319 2559
L 1319 1063
Q 1319 513 1759 513
Q 1844 513 1930 531
Q 2016 550 2088 581
L 2216 38
Q 2088 -6 1923 -42
Q 1759 -78 1575 -78
Q 1300 -78 1111 6
Q 922 91 803 241
Q 684 391 629 598
Q 575 806 575 1063
L 575 2559
L 128 2559
z
" transform="scale(0.015625)"/>
      <path id="SourceSansPro-Semibold-4a" d="M 263 1569
Q 263 1953 384 2259
Q 506 2566 707 2777
Q 909 2988 1171 3103
Q 1434 3219 1709 3219
Q 2028 3219 2272 3111
Q 2516 3003 2678 2804
Q 2841 2606 2925 2329
Q 3009 2053 3009 1728
Q 3009 1509 2975 1381
L 978 1381
Q 1028 953 1275 723
Q 1522 494 1906 494
Q 2113 494 2288 555
Q 2463 616 2638 722
L 2888 263
Q 2663 116 2388 19
Q 2113 -78 1813 -78
Q 1488 -78 1205 34
Q 922 147 711 358
Q 500 569 381 873
Q 263 1178 263 1569
z
M 972 1850
L 2369 1850
Q 2369 2228 2211 2439
Q 2053 2650 1728 2650
Q 1447 2650 1236 2448
Q 1025 2247 972 1850
z
" transform="scale(0.015625)"/>
      <path id="SourceSansPro-Semibold-4e" d="M 384 4109
Q 384 4294 512 4412
Q 641 4531 838 4531
Q 1034 4531 1164 4412
Q 1294 4294 1294 4109
Q 1294 3925 1164 3809
Q 1034 3694 838 3694
Q 641 3694 512 3808
Q 384 3922 384 4109
z
M 469 0
L 469 3144
L 1203 3144
L 1203 0
L 469 0
z
" transform="scale(0.015625)"/>
      <path id="SourceSansPro-Semibold-1b" d="M 281 1913
Q 281 2506 415 2929
Q 550 3353 770 3622
Q 991 3891 1280 4019
Q 1569 4147 1881 4147
Q 2253 4147 2518 4012
Q 2784 3878 2969 3688
L 2572 3238
Q 2463 3372 2288 3459
Q 2113 3547 1925 3547
Q 1734 3547 1564 3469
Q 1394 3391 1267 3216
Q 1141 3041 1059 2752
Q 978 2463 966 2041
Q 1144 2266 1384 2394
Q 1625 2522 1850 2522
Q 2113 2522 2333 2445
Q 2553 2369 2711 2211
Q 2869 2053 2955 1817
Q 3041 1581 3041 1259
Q 3041 953 2937 706
Q 2834 459 2662 287
Q 2491 116 2256 19
Q 2022 -78 1759 -78
Q 1459 -78 1190 40
Q 922 159 720 403
Q 519 647 400 1025
Q 281 1403 281 1913
z
M 984 1516
Q 1041 972 1244 730
Q 1447 488 1747 488
Q 2003 488 2179 686
Q 2356 884 2356 1259
Q 2356 1625 2189 1804
Q 2022 1984 1716 1984
Q 1544 1984 1351 1878
Q 1159 1772 984 1516
z
" transform="scale(0.015625)"/>
      <path id="SourceSansPro-Semibold-19" d="M 116 1050
L 116 1550
L 1728 4072
L 2606 4072
L 2606 1619
L 3116 1619
L 3116 1050
L 2606 1050
L 2606 0
L 1913 0
L 1913 1050
L 116 1050
z
M 844 1619
L 1913 1619
L 1913 2541
Q 1913 2719 1922 2962
Q 1931 3206 1947 3384
L 1919 3384
Q 1841 3225 1759 3072
Q 1678 2919 1588 2753
L 844 1619
z
" transform="scale(0.015625)"/>
      <path id="SourceSansPro-Semibold-e" d="M 275 -934
Q 641 -313 809 378
Q 978 1069 978 1778
Q 978 2488 809 3180
Q 641 3872 275 4494
L 738 4697
Q 1141 4038 1361 3334
Q 1581 2631 1581 1778
Q 1581 928 1361 223
Q 1141 -481 738 -1141
L 275 -934
z
" transform="scale(0.015625)"/>
     </defs>
     <use xlink:href="#SourceSansPro-Semibold-53"/>
     <use xlink:href="#SourceSansPro-Semibold-55" transform="translate(55.953125 0)"/>
     <use xlink:href="#SourceSansPro-Semibold-13" transform="translate(111.375 0)"/>
     <use xlink:href="#SourceSansPro-Semibold-46" transform="translate(138.859375 0)"/>
     <use xlink:href="#SourceSansPro-Semibold-57" transform="translate(191.15625 0)"/>
     <use xlink:href="#SourceSansPro-Semibold-57" transform="translate(228.40625 0)"/>
     <use xlink:href="#SourceSansPro-Semibold-46" transform="translate(262.96875 0)"/>
     <use xlink:href="#SourceSansPro-Semibold-5e" transform="translate(315.265625 0)"/>
     <use xlink:href="#SourceSansPro-Semibold-d" transform="translate(364.734375 0)"/>
     <use xlink:href="#SourceSansPro-Semibold-5d" transform="translate(397.109375 0)"/>
     <use xlink:href="#SourceSansPro-Semibold-58" transform="translate(445.203125 0)"/>
     <use xlink:href="#SourceSansPro-Semibold-11" transform="translate(488.265625 0)"/>
     <use xlink:href="#SourceSansPro-Semibold-5" transform="translate(515.75 0)"/>
     <use xlink:href="#SourceSansPro-Semibold-49" transform="translate(536.203125 0)"/>
     <use xlink:href="#SourceSansPro-Semibold-59" transform="translate(592.59375 0)"/>
     <use xlink:href="#SourceSansPro-Semibold-5e" transform="translate(628.671875 0)"/>
     <use xlink:href="#SourceSansPro-Semibold-55" transform="translate(678.140625 0)"/>
     <use xlink:href="#SourceSansPro-Semibold-4a" transform="translate(734.53125 0)"/>
     <use xlink:href="#SourceSansPro-Semibold-22" transform="translate(785.21875 0)"/>
     <use xlink:href="#SourceSansPro-Semibold-53" transform="translate(836.484375 0)"/>
     <use xlink:href="#SourceSansPro-Semibold-55" transform="translate(892.4375 0)"/>
     <use xlink:href="#SourceSansPro-Semibold-13" transform="translate(947.859375 0)"/>
     <use xlink:href="#SourceSansPro-Semibold-4e" transform="translate(975.34375 0)"/>
     <use xlink:href="#SourceSansPro-Semibold-53" transform="translate(1001.515625 0)"/>
     <use xlink:href="#SourceSansPro-Semibold-59" transform="translate(1057.46875 0)"/>
     <use xlink:href="#SourceSansPro-Semibold-1b" transform="translate(1093.546875 0)"/>
     <use xlink:href="#SourceSansPro-Semibold-19" transform="translate(1144.8125 0)"/>
     <use xlink:href="#SourceSansPro-Semibold-e" transform="translate(1196.078125 0)"/>
    </g>
   </g>
   <g id="text_10">
    <!-- 10 -->
    <g style="fill: #333333" transform="translate(224.053875 290.088) scale(0.18 -0.18)">
     <use xlink:href="#SourceSansPro-Regular-16"/>
     <use xlink:href="#SourceSansPro-Regular-15" transform="translate(49.65625 0)"/>
    </g>
   </g>
   <g id="text_11">
    <!-- 12 -->
    <g style="fill: #333333" transform="translate(365.173875 290.088) scale(0.18 -0.18)">
     <use xlink:href="#SourceSansPro-Regular-16"/>
     <use xlink:href="#SourceSansPro-Regular-17" transform="translate(49.65625 0)"/>
    </g>
   </g>
   <g id="text_12">
    <!-- 11 -->
    <g style="fill: #333333" transform="translate(506.293875 290.088) scale(0.18 -0.18)">
     <use xlink:href="#SourceSansPro-Regular-16"/>
     <use xlink:href="#SourceSansPro-Regular-16" transform="translate(49.65625 0)"/>
    </g>
   </g>
   <g id="text_13">
    <!-- mỗi ô 8 byte, chứa trực tiếp giá trị số -->
    <g style="fill: #666666" transform="translate(261.037781 328.533891) scale(0.15 -0.15)">
     <defs>
      <path id="SourceSansPro-Regular-213" d="M 294 1550
Q 294 1941 412 2244
Q 531 2547 729 2758
Q 928 2969 1187 3078
Q 1447 3188 1734 3188
Q 2022 3188 2281 3078
Q 2541 2969 2739 2758
Q 2938 2547 3056 2244
Q 3175 1941 3175 1550
Q 3175 1166 3056 861
Q 2938 556 2739 348
Q 2541 141 2281 31
Q 2022 -78 1734 -78
Q 1447 -78 1187 31
Q 928 141 729 348
Q 531 556 412 861
Q 294 1166 294 1550
z
M 838 1550
Q 838 1281 902 1062
Q 966 844 1084 687
Q 1203 531 1370 445
Q 1538 359 1734 359
Q 1931 359 2098 445
Q 2266 531 2384 687
Q 2503 844 2567 1062
Q 2631 1281 2631 1550
Q 2631 1819 2567 2039
Q 2503 2259 2384 2418
Q 2266 2578 2098 2665
Q 1931 2753 1734 2753
Q 1538 2753 1370 2665
Q 1203 2578 1084 2418
Q 966 2259 902 2039
Q 838 1819 838 1550
z
M 897 4550
Q 922 4806 1050 4968
Q 1178 5131 1403 5131
Q 1525 5131 1611 5090
Q 1697 5050 1770 4995
Q 1844 4941 1911 4898
Q 1978 4856 2053 4856
Q 2259 4856 2303 5131
L 2572 5131
Q 2547 4875 2419 4712
Q 2291 4550 2066 4550
Q 1944 4550 1858 4592
Q 1772 4634 1698 4689
Q 1625 4744 1558 4784
Q 1491 4825 1416 4825
Q 1209 4825 1166 4550
L 897 4550
z
M 941 3653
L 1491 4319
L 1978 4319
L 2528 3653
L 2156 3653
L 1747 4072
L 1722 4072
L 1313 3653
L 941 3653
z
" transform="scale(0.015625)"/>
      <path id="SourceSansPro-Regular-b8" d="M 294 1550
Q 294 1941 412 2244
Q 531 2547 729 2758
Q 928 2969 1187 3078
Q 1447 3188 1734 3188
Q 2022 3188 2281 3078
Q 2541 2969 2739 2758
Q 2938 2547 3056 2244
Q 3175 1941 3175 1550
Q 3175 1166 3056 861
Q 2938 556 2739 348
Q 2541 141 2281 31
Q 2022 -78 1734 -78
Q 1447 -78 1187 31
Q 928 141 729 348
Q 531 556 412 861
Q 294 1166 294 1550
z
M 838 1550
Q 838 1281 902 1062
Q 966 844 1084 687
Q 1203 531 1370 445
Q 1538 359 1734 359
Q 1931 359 2098 445
Q 2266 531 2384 687
Q 2503 844 2567 1062
Q 2631 1281 2631 1550
Q 2631 1819 2567 2039
Q 2503 2259 2384 2418
Q 2266 2578 2098 2665
Q 1931 2753 1734 2753
Q 1538 2753 1370 2665
Q 1203 2578 1084 2418
Q 966 2259 902 2039
Q 838 1819 838 1550
z
M 909 3669
L 1516 4569
L 1953 4569
L 2559 3669
L 2175 3669
L 1747 4250
L 1722 4250
L 1294 3669
L 909 3669
z
" transform="scale(0.015625)"/>
      <path id="SourceSansPro-Regular-1d" d="M 263 1044
Q 263 1241 330 1411
Q 397 1581 503 1718
Q 609 1856 746 1962
Q 884 2069 1031 2144
L 1031 2169
Q 806 2328 632 2556
Q 459 2784 459 3109
Q 459 3347 550 3539
Q 641 3731 794 3868
Q 947 4006 1158 4082
Q 1369 4159 1619 4159
Q 1888 4159 2098 4079
Q 2309 4000 2461 3856
Q 2613 3713 2692 3511
Q 2772 3309 2772 3072
Q 2772 2913 2717 2766
Q 2663 2619 2583 2491
Q 2503 2363 2403 2259
Q 2303 2156 2209 2088
L 2209 2059
Q 2344 1981 2470 1882
Q 2597 1784 2697 1661
Q 2797 1538 2858 1377
Q 2919 1216 2919 1013
Q 2919 781 2822 582
Q 2725 384 2553 237
Q 2381 91 2137 6
Q 1894 -78 1600 -78
Q 1313 -78 1066 6
Q 819 91 644 241
Q 469 391 366 595
Q 263 800 263 1044
z
M 738 1094
Q 738 922 805 781
Q 872 641 989 534
Q 1106 428 1267 370
Q 1428 313 1613 313
Q 1972 313 2192 511
Q 2413 709 2413 1031
Q 2413 1228 2323 1368
Q 2234 1509 2079 1615
Q 1925 1722 1723 1808
Q 1522 1894 1306 1984
Q 1063 1819 900 1597
Q 738 1375 738 1094
z
M 947 3109
Q 947 2925 1023 2794
Q 1100 2663 1231 2559
Q 1363 2456 1533 2378
Q 1703 2300 1888 2228
Q 2094 2413 2205 2617
Q 2316 2822 2316 3047
Q 2316 3353 2131 3561
Q 1947 3769 1606 3769
Q 1319 3769 1133 3591
Q 947 3413 947 3109
z
" transform="scale(0.015625)"/>
      <path id="SourceSansPro-Regular-47" d="M 525 0
L 525 4556
L 1050 4556
L 1050 3316
L 1038 2753
Q 1250 2938 1498 3063
Q 1747 3188 2009 3188
Q 2309 3188 2540 3075
Q 2772 2963 2928 2755
Q 3084 2547 3164 2256
Q 3244 1966 3244 1606
Q 3244 1209 3136 895
Q 3028 581 2842 364
Q 2656 147 2412 34
Q 2169 -78 1900 -78
Q 1681 -78 1448 22
Q 1216 122 1013 306
L 991 306
L 947 0
L 525 0
z
M 1050 691
Q 1256 513 1456 439
Q 1656 366 1813 366
Q 2003 366 2165 452
Q 2328 538 2447 694
Q 2566 850 2633 1081
Q 2700 1313 2700 1600
Q 2700 1856 2656 2067
Q 2613 2278 2513 2428
Q 2413 2578 2256 2662
Q 2100 2747 1881 2747
Q 1503 2747 1050 2322
L 1050 691
z
" transform="scale(0.015625)"/>
      <path id="SourceSansPro-Regular-5e" d="M 78 3109
L 622 3109
L 1253 1388
Q 1325 1181 1404 954
Q 1484 728 1556 513
L 1581 513
Q 1653 725 1715 954
Q 1778 1184 1844 1388
L 2400 3109
L 2913 3109
L 1741 -256
Q 1656 -488 1554 -686
Q 1453 -884 1312 -1028
Q 1172 -1172 992 -1255
Q 813 -1338 575 -1338
Q 466 -1338 377 -1322
Q 288 -1306 213 -1275
L 313 -856
Q 363 -869 428 -886
Q 494 -903 550 -903
Q 819 -903 989 -714
Q 1159 -525 1253 -238
L 1325 -6
L 78 3109
z
" transform="scale(0.015625)"/>
      <path id="SourceSansPro-Regular-4a" d="M 294 1550
Q 294 1934 412 2237
Q 531 2541 726 2752
Q 922 2963 1172 3075
Q 1422 3188 1691 3188
Q 1984 3188 2217 3084
Q 2450 2981 2608 2789
Q 2766 2597 2848 2328
Q 2931 2059 2931 1728
Q 2931 1556 2913 1441
L 813 1441
Q 844 934 1123 640
Q 1403 347 1850 347
Q 2075 347 2262 414
Q 2450 481 2625 588
L 2809 244
Q 2603 116 2354 19
Q 2106 -78 1784 -78
Q 1472 -78 1200 34
Q 928 147 726 355
Q 525 563 409 864
Q 294 1166 294 1550
z
M 806 1784
L 2472 1784
Q 2472 2266 2270 2519
Q 2069 2772 1703 2772
Q 1538 2772 1386 2705
Q 1234 2638 1112 2513
Q 991 2388 911 2205
Q 831 2022 806 1784
z
" transform="scale(0.015625)"/>
      <path id="SourceSansPro-Regular-11" d="M 300 -781
Q 569 -659 723 -461
Q 878 -263 878 0
Q 859 -6 813 -6
Q 659 -6 546 86
Q 434 178 434 359
Q 434 531 550 629
Q 666 728 825 728
Q 1031 728 1150 562
Q 1269 397 1269 109
Q 1269 -306 1044 -614
Q 819 -922 428 -1088
L 300 -781
z
" transform="scale(0.015625)"/>
      <path id="SourceSansPro-Regular-225" d="M 481 1141
L 481 3109
L 1013 3109
L 1013 1209
Q 1013 769 1150 573
Q 1288 378 1594 378
Q 1838 378 2023 503
Q 2209 628 2431 903
L 2431 3109
L 2566 3109
Q 2791 3134 2947 3225
Q 3103 3316 3103 3531
Q 3103 3603 3078 3670
Q 3053 3738 3016 3803
L 3391 3988
Q 3453 3897 3497 3795
Q 3541 3694 3541 3572
Q 3541 3425 3489 3315
Q 3438 3206 3358 3126
Q 3278 3047 3172 2995
Q 3066 2944 2956 2913
L 2956 0
L 2522 0
L 2478 488
L 2456 488
Q 2238 231 1998 76
Q 1759 -78 1434 -78
Q 934 -78 707 230
Q 481 538 481 1141
z
M 1288 3669
L 1863 4569
L 2413 4569
L 1691 3669
L 1288 3669
z
" transform="scale(0.015625)"/>
      <path id="SourceSansPro-Regular-22d" d="M 481 1141
L 481 3109
L 1013 3109
L 1013 1209
Q 1013 769 1150 573
Q 1288 378 1594 378
Q 1838 378 2023 503
Q 2209 628 2431 903
L 2431 3109
L 2566 3109
Q 2791 3134 2947 3225
Q 3103 3316 3103 3531
Q 3103 3603 3078 3670
Q 3053 3738 3016 3803
L 3391 3988
Q 3453 3897 3497 3795
Q 3541 3694 3541 3572
Q 3541 3425 3489 3315
Q 3438 3206 3358 3126
Q 3278 3047 3172 2995
Q 3066 2944 2956 2913
L 2956 0
L 2522 0
L 2478 488
L 2456 488
Q 2238 231 1998 76
Q 1759 -78 1434 -78
Q 934 -78 707 230
Q 481 538 481 1141
z
M 1472 -972
Q 1472 -825 1572 -729
Q 1672 -634 1819 -634
Q 1966 -634 2066 -729
Q 2166 -825 2166 -972
Q 2166 -1125 2066 -1222
Q 1966 -1319 1819 -1319
Q 1672 -1319 1572 -1222
Q 1472 -1125 1472 -972
z
" transform="scale(0.015625)"/>
      <path id="SourceSansPro-Regular-55" d="M 525 -1313
L 525 3109
L 959 3109
L 1006 2753
L 1025 2753
Q 1238 2931 1489 3059
Q 1741 3188 2016 3188
Q 2316 3188 2547 3075
Q 2778 2963 2931 2755
Q 3084 2547 3164 2256
Q 3244 1966 3244 1600
Q 3244 1203 3136 892
Q 3028 581 2842 364
Q 2656 147 2412 34
Q 2169 -78 1900 -78
Q 1681 -78 1467 19
Q 1253 116 1038 281
L 1050 -263
L 1050 -1313
L 525 -1313
z
M 1050 691
Q 1263 513 1459 439
Q 1656 366 1813 366
Q 2003 366 2165 452
Q 2328 538 2447 694
Q 2566 850 2633 1081
Q 2700 1313 2700 1600
Q 2700 1856 2656 2067
Q 2613 2278 2513 2428
Q 2413 2578 2256 2662
Q 2100 2747 1881 2747
Q 1684 2747 1482 2637
Q 1281 2528 1050 2322
L 1050 691
z
" transform="scale(0.015625)"/>
     </defs>
     <use xlink:href="#SourceSansPro-Regular-52"/>
     <use xlink:href="#SourceSansPro-Regular-213" transform="translate(82.859375 0)"/>
     <use xlink:href="#SourceSansPro-Regular-4e" transform="translate(137.0625 0)"/>
     <use xlink:href="#SourceSansPro-Regular-5" transform="translate(161.625 0)"/>
     <use xlink:href="#SourceSansPro-Regular-b8" transform="translate(181.796875 0)"/>
     <use xlink:href="#SourceSansPro-Regular-5" transform="translate(236 0)"/>
     <use xlink:href="#SourceSansPro-Regular-1d" transform="translate(256.171875 0)"/>
     <use xlink:href="#SourceSansPro-Regular-5" transform="translate(305.828125 0)"/>
     <use xlink:href="#SourceSansPro-Regular-47" transform="translate(326 0)"/>
     <use xlink:href="#SourceSansPro-Regular-5e" transform="translate(381.078125 0)"/>
     <use xlink:href="#SourceSansPro-Regular-59" transform="translate(427.765625 0)"/>
     <use xlink:href="#SourceSansPro-Regular-4a" transform="translate(460.59375 0)"/>
     <use xlink:href="#SourceSansPro-Regular-11" transform="translate(510.15625 0)"/>
     <use xlink:href="#SourceSansPro-Regular-5" transform="translate(535.015625 0)"/>
     <use xlink:href="#SourceSansPro-Regular-48" transform="translate(555.1875 0)"/>
     <use xlink:href="#SourceSansPro-Regular-4d" transform="translate(600.75 0)"/>
     <use xlink:href="#SourceSansPro-Regular-225" transform="translate(655.140625 0)"/>
     <use xlink:href="#SourceSansPro-Regular-46" transform="translate(708.5625 0)"/>
     <use xlink:href="#SourceSansPro-Regular-5" transform="translate(759.734375 0)"/>
     <use xlink:href="#SourceSansPro-Regular-59" transform="translate(779.90625 0)"/>
     <use xlink:href="#SourceSansPro-Regular-57" transform="translate(813.703125 0)"/>
     <use xlink:href="#SourceSansPro-Regular-22d" transform="translate(848.375 0)"/>
     <use xlink:href="#SourceSansPro-Regular-48" transform="translate(902.765625 0)"/>
     <use xlink:href="#SourceSansPro-Regular-5" transform="translate(948.328125 0)"/>
     <use xlink:href="#SourceSansPro-Regular-59" transform="translate(968.5 0)"/>
     <use xlink:href="#SourceSansPro-Regular-4e" transform="translate(1002.296875 0)"/>
     <use xlink:href="#SourceSansPro-Regular-1fb" transform="translate(1026.859375 0)"/>
     <use xlink:href="#SourceSansPro-Regular-55" transform="translate(1076.421875 0)"/>
     <use xlink:href="#SourceSansPro-Regular-5" transform="translate(1131.890625 0)"/>
     <use xlink:href="#SourceSansPro-Regular-4c" transform="translate(1152.0625 0)"/>
     <use xlink:href="#SourceSansPro-Regular-4e" transform="translate(1202.453125 0)"/>
     <use xlink:href="#SourceSansPro-Regular-a5" transform="translate(1227.015625 0)"/>
     <use xlink:href="#SourceSansPro-Regular-5" transform="translate(1278.1875 0)"/>
     <use xlink:href="#SourceSansPro-Regular-59" transform="translate(1298.359375 0)"/>
     <use xlink:href="#SourceSansPro-Regular-57" transform="translate(1332.15625 0)"/>
     <use xlink:href="#SourceSansPro-Regular-207" transform="translate(1366.828125 0)"/>
     <use xlink:href="#SourceSansPro-Regular-5" transform="translate(1391.390625 0)"/>
     <use xlink:href="#SourceSansPro-Regular-58" transform="translate(1411.5625 0)"/>
     <use xlink:href="#SourceSansPro-Regular-20d" transform="translate(1453.453125 0)"/>
    </g>
   </g>
  </g>
 </g>
 <defs>
  <clipPath id="p8f61b62ffe">
   <rect x="7.2" y="3.348" width="705.6" height="328.104"/>
  </clipPath>
 </defs>
</svg>
